<mxfile host="app.diagrams.net" agent="Mozilla/5.0 (Windows NT 10.0; Win64; x64) AppleWebKit/537.36 (KHTML, like Gecko) Chrome/131.0.0.0 Safari/537.36 Edg/131.0.0.0" version="25.0.3">
  <diagram id="6jgP-mfPmLm2wzObqZNf" name="Trang-1">
    <mxGraphModel dx="2397" dy="875" grid="1" gridSize="10" guides="1" tooltips="1" connect="1" arrows="1" fold="1" page="1" pageScale="1" pageWidth="827" pageHeight="1169" math="0" shadow="0">
      <root>
        <mxCell id="0" />
        <mxCell id="1" parent="0" />
        <mxCell id="DImqCOgXmK51_X3ETGRD-1" value="" style="rounded=0;whiteSpace=wrap;html=1;fillColor=none;" parent="1" vertex="1">
          <mxGeometry x="-46" y="240" width="920" height="720" as="geometry" />
        </mxCell>
        <mxCell id="oCB9ASlMgNIJrJS8nOU--36" style="edgeStyle=orthogonalEdgeStyle;rounded=0;orthogonalLoop=1;jettySize=auto;html=1;entryX=0.5;entryY=0;entryDx=0;entryDy=0;strokeWidth=3;" parent="1" source="oCB9ASlMgNIJrJS8nOU--5" target="oCB9ASlMgNIJrJS8nOU--35" edge="1">
          <mxGeometry relative="1" as="geometry" />
        </mxCell>
        <mxCell id="oCB9ASlMgNIJrJS8nOU--5" value="&lt;font style=&quot;font-size: 30px;&quot;&gt;Frequency Divider&lt;/font&gt;" style="rounded=0;whiteSpace=wrap;html=1;fillColor=#dae8fc;strokeColor=#6c8ebf;" parent="1" vertex="1">
          <mxGeometry y="250" width="160" height="100" as="geometry" />
        </mxCell>
        <mxCell id="oCB9ASlMgNIJrJS8nOU--6" value="" style="endArrow=classic;html=1;rounded=0;entryX=-0.001;entryY=0.079;entryDx=0;entryDy=0;entryPerimeter=0;strokeWidth=3;" parent="1" edge="1">
          <mxGeometry width="50" height="50" relative="1" as="geometry">
            <mxPoint x="-200" y="345" as="sourcePoint" />
            <mxPoint x="-46.92000000000007" y="344.5" as="targetPoint" />
          </mxGeometry>
        </mxCell>
        <mxCell id="oCB9ASlMgNIJrJS8nOU--7" value="&lt;font style=&quot;font-size: 30px;&quot;&gt;clk&lt;/font&gt;" style="text;html=1;align=center;verticalAlign=middle;resizable=0;points=[];autosize=1;strokeColor=none;fillColor=none;perimeterSpacing=2;strokeWidth=3;" parent="1" vertex="1">
          <mxGeometry x="-170" y="295" width="60" height="50" as="geometry" />
        </mxCell>
        <mxCell id="oCB9ASlMgNIJrJS8nOU--14" value="&lt;font style=&quot;font-size: 30px;&quot;&gt;Lucky Number Game - Top level module&lt;/font&gt;" style="text;html=1;align=center;verticalAlign=middle;resizable=0;points=[];autosize=1;strokeColor=#82b366;fillColor=#d5e8d4;" parent="1" vertex="1">
          <mxGeometry x="134" y="170" width="560" height="50" as="geometry" />
        </mxCell>
        <mxCell id="oCB9ASlMgNIJrJS8nOU--15" value="" style="endArrow=classic;html=1;rounded=0;entryX=-0.002;entryY=0.068;entryDx=0;entryDy=0;entryPerimeter=0;strokeWidth=3;" parent="1" edge="1">
          <mxGeometry width="50" height="50" relative="1" as="geometry">
            <mxPoint x="-198" y="425" as="sourcePoint" />
            <mxPoint x="-46" y="423" as="targetPoint" />
          </mxGeometry>
        </mxCell>
        <mxCell id="oCB9ASlMgNIJrJS8nOU--16" value="&lt;span style=&quot;font-size: 30px;&quot;&gt;rst&lt;/span&gt;" style="text;html=1;align=center;verticalAlign=middle;resizable=0;points=[];autosize=1;strokeColor=none;fillColor=none;perimeterSpacing=2;strokeWidth=3;" parent="1" vertex="1">
          <mxGeometry x="-168" y="375" width="60" height="50" as="geometry" />
        </mxCell>
        <mxCell id="oCB9ASlMgNIJrJS8nOU--17" value="" style="endArrow=classic;html=1;rounded=0;entryX=-0.002;entryY=0.068;entryDx=0;entryDy=0;entryPerimeter=0;strokeWidth=3;" parent="1" edge="1">
          <mxGeometry width="50" height="50" relative="1" as="geometry">
            <mxPoint x="-198" y="505" as="sourcePoint" />
            <mxPoint x="-46" y="503" as="targetPoint" />
          </mxGeometry>
        </mxCell>
        <mxCell id="oCB9ASlMgNIJrJS8nOU--18" value="&lt;span style=&quot;font-size: 30px;&quot;&gt;button&lt;/span&gt;" style="text;html=1;align=center;verticalAlign=middle;resizable=0;points=[];autosize=1;strokeColor=none;fillColor=none;perimeterSpacing=2;strokeWidth=3;" parent="1" vertex="1">
          <mxGeometry x="-193" y="455" width="110" height="50" as="geometry" />
        </mxCell>
        <mxCell id="oCB9ASlMgNIJrJS8nOU--20" value="" style="endArrow=classic;html=1;rounded=0;entryX=-0.002;entryY=0.068;entryDx=0;entryDy=0;entryPerimeter=0;strokeWidth=3;" parent="1" edge="1">
          <mxGeometry width="50" height="50" relative="1" as="geometry">
            <mxPoint x="-198" y="585" as="sourcePoint" />
            <mxPoint x="-46" y="583" as="targetPoint" />
          </mxGeometry>
        </mxCell>
        <mxCell id="oCB9ASlMgNIJrJS8nOU--21" value="&lt;span style=&quot;font-size: 30px;&quot;&gt;switch&lt;/span&gt;" style="text;html=1;align=center;verticalAlign=middle;resizable=0;points=[];autosize=1;strokeColor=none;fillColor=none;perimeterSpacing=2;strokeWidth=3;" parent="1" vertex="1">
          <mxGeometry x="-193" y="535" width="110" height="50" as="geometry" />
        </mxCell>
        <mxCell id="oCB9ASlMgNIJrJS8nOU--22" value="" style="endArrow=classic;html=1;rounded=0;entryX=-0.002;entryY=0.068;entryDx=0;entryDy=0;entryPerimeter=0;strokeWidth=3;" parent="1" edge="1">
          <mxGeometry width="50" height="50" relative="1" as="geometry">
            <mxPoint x="874" y="345" as="sourcePoint" />
            <mxPoint x="1026" y="343" as="targetPoint" />
          </mxGeometry>
        </mxCell>
        <mxCell id="oCB9ASlMgNIJrJS8nOU--23" value="&lt;span style=&quot;font-size: 30px;&quot;&gt;led&lt;/span&gt;" style="text;html=1;align=center;verticalAlign=middle;resizable=0;points=[];autosize=1;strokeColor=none;fillColor=none;perimeterSpacing=2;strokeWidth=3;" parent="1" vertex="1">
          <mxGeometry x="915" y="295" width="60" height="50" as="geometry" />
        </mxCell>
        <mxCell id="oCB9ASlMgNIJrJS8nOU--24" value="" style="endArrow=classic;html=1;rounded=0;entryX=-0.002;entryY=0.068;entryDx=0;entryDy=0;entryPerimeter=0;strokeWidth=3;" parent="1" edge="1">
          <mxGeometry width="50" height="50" relative="1" as="geometry">
            <mxPoint x="874" y="425" as="sourcePoint" />
            <mxPoint x="1026" y="423" as="targetPoint" />
          </mxGeometry>
        </mxCell>
        <mxCell id="oCB9ASlMgNIJrJS8nOU--25" value="&lt;span style=&quot;font-size: 30px;&quot;&gt;rgb&lt;/span&gt;" style="text;html=1;align=center;verticalAlign=middle;resizable=0;points=[];autosize=1;strokeColor=none;fillColor=none;perimeterSpacing=2;strokeWidth=3;" parent="1" vertex="1">
          <mxGeometry x="910" y="375" width="70" height="50" as="geometry" />
        </mxCell>
        <mxCell id="oCB9ASlMgNIJrJS8nOU--28" value="" style="endArrow=classic;html=1;rounded=0;entryX=-0.002;entryY=0.068;entryDx=0;entryDy=0;entryPerimeter=0;strokeWidth=3;" parent="1" edge="1">
          <mxGeometry width="50" height="50" relative="1" as="geometry">
            <mxPoint x="874" y="505" as="sourcePoint" />
            <mxPoint x="1026" y="503" as="targetPoint" />
          </mxGeometry>
        </mxCell>
        <mxCell id="oCB9ASlMgNIJrJS8nOU--29" value="&lt;span style=&quot;font-size: 30px;&quot;&gt;lcd&lt;/span&gt;" style="text;html=1;align=center;verticalAlign=middle;resizable=0;points=[];autosize=1;strokeColor=none;fillColor=none;perimeterSpacing=2;strokeWidth=3;" parent="1" vertex="1">
          <mxGeometry x="915" y="455" width="60" height="50" as="geometry" />
        </mxCell>
        <mxCell id="oCB9ASlMgNIJrJS8nOU--30" value="" style="endArrow=classic;html=1;rounded=0;entryX=-0.002;entryY=0.068;entryDx=0;entryDy=0;entryPerimeter=0;strokeWidth=3;" parent="1" edge="1">
          <mxGeometry width="50" height="50" relative="1" as="geometry">
            <mxPoint x="874" y="585" as="sourcePoint" />
            <mxPoint x="1026" y="583" as="targetPoint" />
          </mxGeometry>
        </mxCell>
        <mxCell id="oCB9ASlMgNIJrJS8nOU--31" value="&lt;span style=&quot;font-size: 30px;&quot;&gt;bcd&lt;/span&gt;" style="text;html=1;align=center;verticalAlign=middle;resizable=0;points=[];autosize=1;strokeColor=none;fillColor=none;perimeterSpacing=2;strokeWidth=3;" parent="1" vertex="1">
          <mxGeometry x="910" y="535" width="70" height="50" as="geometry" />
        </mxCell>
        <mxCell id="oCB9ASlMgNIJrJS8nOU--50" style="edgeStyle=orthogonalEdgeStyle;rounded=0;orthogonalLoop=1;jettySize=auto;html=1;strokeWidth=3;fillColor=#f8cecc;strokeColor=#b85450;entryX=0;entryY=0.5;entryDx=0;entryDy=0;" parent="1" source="oCB9ASlMgNIJrJS8nOU--34" target="oCB9ASlMgNIJrJS8nOU--48" edge="1">
          <mxGeometry relative="1" as="geometry" />
        </mxCell>
        <mxCell id="oCB9ASlMgNIJrJS8nOU--54" style="edgeStyle=orthogonalEdgeStyle;rounded=0;orthogonalLoop=1;jettySize=auto;html=1;entryX=0;entryY=0.5;entryDx=0;entryDy=0;strokeWidth=3;fillColor=#f8cecc;strokeColor=#b85450;" parent="1" source="oCB9ASlMgNIJrJS8nOU--34" target="oCB9ASlMgNIJrJS8nOU--51" edge="1">
          <mxGeometry relative="1" as="geometry">
            <Array as="points">
              <mxPoint x="605" y="425" />
              <mxPoint x="605" y="550" />
            </Array>
          </mxGeometry>
        </mxCell>
        <mxCell id="oCB9ASlMgNIJrJS8nOU--59" style="edgeStyle=orthogonalEdgeStyle;rounded=0;orthogonalLoop=1;jettySize=auto;html=1;entryX=0;entryY=0.5;entryDx=0;entryDy=0;strokeWidth=3;fillColor=#f8cecc;strokeColor=#b85450;" parent="1" source="oCB9ASlMgNIJrJS8nOU--34" target="oCB9ASlMgNIJrJS8nOU--58" edge="1">
          <mxGeometry relative="1" as="geometry" />
        </mxCell>
        <mxCell id="oCB9ASlMgNIJrJS8nOU--34" value="&lt;span style=&quot;font-size: 30px;&quot;&gt;Fsm Lucky Number Game&lt;/span&gt;" style="rounded=0;whiteSpace=wrap;html=1;fillColor=#f8cecc;strokeColor=#b85450;" parent="1" vertex="1">
          <mxGeometry x="250" y="264.5" width="320" height="320" as="geometry" />
        </mxCell>
        <mxCell id="oCB9ASlMgNIJrJS8nOU--41" style="edgeStyle=orthogonalEdgeStyle;rounded=0;orthogonalLoop=1;jettySize=auto;html=1;strokeWidth=3;" parent="1" source="oCB9ASlMgNIJrJS8nOU--35" target="oCB9ASlMgNIJrJS8nOU--34" edge="1">
          <mxGeometry relative="1" as="geometry" />
        </mxCell>
        <mxCell id="oCB9ASlMgNIJrJS8nOU--35" value="&lt;span style=&quot;font-size: 30px;&quot;&gt;Fsm Button&lt;/span&gt;" style="rounded=0;whiteSpace=wrap;html=1;fillColor=#dae8fc;strokeColor=#6c8ebf;" parent="1" vertex="1">
          <mxGeometry x="-20" y="440" width="200" height="100" as="geometry" />
        </mxCell>
        <mxCell id="oCB9ASlMgNIJrJS8nOU--40" style="edgeStyle=orthogonalEdgeStyle;rounded=0;orthogonalLoop=1;jettySize=auto;html=1;entryX=0.5;entryY=1;entryDx=0;entryDy=0;strokeWidth=3;" parent="1" source="oCB9ASlMgNIJrJS8nOU--37" target="oCB9ASlMgNIJrJS8nOU--35" edge="1">
          <mxGeometry relative="1" as="geometry" />
        </mxCell>
        <mxCell id="oCB9ASlMgNIJrJS8nOU--37" value="&lt;span style=&quot;font-size: 30px;&quot;&gt;Read button debounce&lt;/span&gt;" style="rounded=0;whiteSpace=wrap;html=1;fillColor=#dae8fc;strokeColor=#6c8ebf;" parent="1" vertex="1">
          <mxGeometry x="-20" y="630" width="200" height="100" as="geometry" />
        </mxCell>
        <mxCell id="oCB9ASlMgNIJrJS8nOU--43" style="edgeStyle=orthogonalEdgeStyle;rounded=0;orthogonalLoop=1;jettySize=auto;html=1;strokeWidth=3;" parent="1" source="oCB9ASlMgNIJrJS8nOU--42" target="oCB9ASlMgNIJrJS8nOU--34" edge="1">
          <mxGeometry relative="1" as="geometry" />
        </mxCell>
        <mxCell id="oCB9ASlMgNIJrJS8nOU--42" value="&lt;span style=&quot;font-size: 30px;&quot;&gt;Result checker&lt;/span&gt;" style="rounded=0;whiteSpace=wrap;html=1;fillColor=#fff2cc;strokeColor=#d6b656;" parent="1" vertex="1">
          <mxGeometry x="300" y="630" width="220" height="100" as="geometry" />
        </mxCell>
        <mxCell id="oCB9ASlMgNIJrJS8nOU--48" value="&lt;span style=&quot;font-size: 30px;&quot;&gt;Led controller&lt;/span&gt;" style="rounded=0;whiteSpace=wrap;html=1;fillColor=#e1d5e7;strokeColor=#9673a6;" parent="1" vertex="1">
          <mxGeometry x="640" y="620" width="200" height="100" as="geometry" />
        </mxCell>
        <mxCell id="oCB9ASlMgNIJrJS8nOU--51" value="&lt;span style=&quot;font-size: 30px;&quot;&gt;Lcd controller&lt;/span&gt;" style="rounded=0;whiteSpace=wrap;html=1;fillColor=#e1d5e7;strokeColor=#9673a6;" parent="1" vertex="1">
          <mxGeometry x="640" y="500" width="200" height="100" as="geometry" />
        </mxCell>
        <mxCell id="oCB9ASlMgNIJrJS8nOU--55" value="&lt;span style=&quot;font-size: 30px;&quot;&gt;Speed controller&lt;/span&gt;" style="rounded=0;whiteSpace=wrap;html=1;fillColor=#e1d5e7;strokeColor=#9673a6;" parent="1" vertex="1">
          <mxGeometry x="640" y="380" width="200" height="100" as="geometry" />
        </mxCell>
        <mxCell id="oCB9ASlMgNIJrJS8nOU--56" style="edgeStyle=orthogonalEdgeStyle;rounded=0;orthogonalLoop=1;jettySize=auto;html=1;entryX=0.012;entryY=0.444;entryDx=0;entryDy=0;entryPerimeter=0;strokeWidth=3;fillColor=#f8cecc;strokeColor=#b85450;" parent="1" source="oCB9ASlMgNIJrJS8nOU--34" target="oCB9ASlMgNIJrJS8nOU--55" edge="1">
          <mxGeometry relative="1" as="geometry" />
        </mxCell>
        <mxCell id="oCB9ASlMgNIJrJS8nOU--58" value="&lt;span style=&quot;font-size: 30px;&quot;&gt;Bcd controller&lt;/span&gt;" style="rounded=0;whiteSpace=wrap;html=1;fillColor=#e1d5e7;strokeColor=#9673a6;" parent="1" vertex="1">
          <mxGeometry x="640" y="260" width="200" height="100" as="geometry" />
        </mxCell>
        <mxCell id="iqeVaY4eL2NdAzIchOOD-7" style="edgeStyle=orthogonalEdgeStyle;rounded=0;orthogonalLoop=1;jettySize=auto;html=1;entryX=0.75;entryY=1;entryDx=0;entryDy=0;strokeWidth=3;" edge="1" parent="1" source="iqeVaY4eL2NdAzIchOOD-1" target="oCB9ASlMgNIJrJS8nOU--35">
          <mxGeometry relative="1" as="geometry">
            <Array as="points">
              <mxPoint x="220" y="600" />
              <mxPoint x="130" y="600" />
            </Array>
          </mxGeometry>
        </mxCell>
        <mxCell id="iqeVaY4eL2NdAzIchOOD-1" value="&lt;span style=&quot;font-size: 30px;&quot;&gt;controlGameWithBluetooth&lt;/span&gt;" style="rounded=0;whiteSpace=wrap;html=1;fillColor=#ffe6cc;strokeColor=#d79b00;" vertex="1" parent="1">
          <mxGeometry x="-20" y="780" width="860" height="160" as="geometry" />
        </mxCell>
        <mxCell id="iqeVaY4eL2NdAzIchOOD-2" value="&lt;span style=&quot;font-size: 30px;&quot;&gt;ESP32&lt;/span&gt;" style="rounded=0;whiteSpace=wrap;html=1;fillColor=#d5e8d4;strokeColor=#82b366;gradientColor=#97d077;" vertex="1" parent="1">
          <mxGeometry x="310" y="1060" width="200" height="100" as="geometry" />
        </mxCell>
        <mxCell id="iqeVaY4eL2NdAzIchOOD-5" value="" style="endArrow=classic;startArrow=classic;html=1;rounded=0;exitX=0.5;exitY=0;exitDx=0;exitDy=0;entryX=0.5;entryY=1;entryDx=0;entryDy=0;strokeWidth=3;" edge="1" parent="1" source="iqeVaY4eL2NdAzIchOOD-2" target="iqeVaY4eL2NdAzIchOOD-1">
          <mxGeometry width="50" height="50" relative="1" as="geometry">
            <mxPoint x="270" y="850" as="sourcePoint" />
            <mxPoint x="320" y="800" as="targetPoint" />
          </mxGeometry>
        </mxCell>
        <mxCell id="iqeVaY4eL2NdAzIchOOD-6" value="&lt;span style=&quot;font-size: 30px;&quot;&gt;Uart&lt;/span&gt;" style="text;html=1;align=center;verticalAlign=middle;resizable=0;points=[];autosize=1;strokeColor=none;fillColor=none;perimeterSpacing=2;strokeWidth=3;" vertex="1" parent="1">
          <mxGeometry x="430" y="980" width="80" height="50" as="geometry" />
        </mxCell>
      </root>
    </mxGraphModel>
  </diagram>
</mxfile>
